<?xml version="1.0" standalone="no"?>
<!DOCTYPE svg PUBLIC "-//W3C//DTD SVG 20010904//EN"
 "http://www.w3.org/TR/2001/REC-SVG-20010904/DTD/svg10.dtd">
<svg version="1.0" xmlns="http://www.w3.org/2000/svg"
 width="400.000000pt" height="400.000000pt" viewBox="0 0 400.000000 400.000000"
 preserveAspectRatio="xMidYMid meet">

<g transform="translate(0.000000,400.000000) scale(0.100000,-0.100000)"
fill="#000000" stroke="none">
<path d="M1435 3965 c-189 -66 -357 -159 -484 -269 -292 -252 -529 -633 -621
-998 -12 -46 -26 -101 -31 -122 l-11 -39 -144 6 c-79 2 -144 2 -144 -3 0 -8
132 -20 223 -20 50 0 57 -2 57 -20 0 -23 -28 -207 -36 -231 -4 -14 -122 -75
-211 -109 -18 -7 -33 -16 -33 -21 0 -11 105 28 179 65 29 15 55 26 57 24 2 -3
-1 -78 -7 -169 -27 -443 51 -780 213 -913 24 -19 53 -43 65 -53 24 -19 23 -16
58 -278 45 -330 100 -585 165 -758 21 -55 23 -57 57 -57 31 0 35 2 30 23 -4
12 -13 60 -22 107 -9 47 -20 104 -24 128 -5 23 -5 42 0 42 4 0 23 -21 41 -47
17 -27 78 -94 133 -151 l101 -102 117 0 c64 0 117 2 117 5 0 8 -23 48 -39 68
-19 23 -16 23 87 -23 49 -22 105 -43 123 -46 l34 -7 -39 39 c-49 50 -124 161
-180 267 -55 102 -153 340 -194 467 -17 52 -34 103 -37 113 -4 9 -3 17 3 17
15 0 116 -213 158 -334 32 -92 39 -106 47 -88 6 14 6 47 0 92 -7 55 -6 70 3
70 7 0 17 -6 21 -13 20 -31 239 -197 260 -197 23 0 14 35 -37 140 -28 56 -49
104 -47 106 11 11 305 -239 383 -326 20 -22 40 -40 45 -40 12 0 11 114 -2 169
-5 24 -7 46 -3 50 3 3 48 -39 99 -94 51 -55 97 -96 102 -92 4 5 8 69 8 143 0
74 4 134 8 134 42 0 271 -116 290 -147 11 -18 -344 -366 -458 -450 l-30 -22
141 -1 141 0 13 40 c8 25 27 50 49 67 74 55 154 129 177 162 l23 34 7 -27 c6
-26 24 -36 24 -13 0 21 -37 144 -71 234 -18 47 -57 125 -87 172 -30 47 -56 89
-58 92 -2 4 19 21 46 39 28 18 50 36 50 41 0 12 -17 11 -25 -1 -7 -11 -75 -57
-208 -138 l-98 -59 -117 39 c-64 21 -184 64 -267 94 -82 31 -187 69 -232 86
-158 58 -257 143 -331 285 -23 43 -59 107 -81 143 -22 36 -38 66 -37 68 2 1
15 -2 30 -8 45 -17 50 0 14 39 -85 90 -163 219 -201 332 -13 39 -14 67 -6 174
9 120 50 340 67 357 4 4 38 0 76 -8 49 -10 73 -11 80 -4 14 14 -9 30 -44 30
-46 0 -100 13 -100 22 0 23 75 248 82 248 4 0 8 -7 8 -16 0 -29 121 -257 180
-339 53 -73 123 -146 196 -202 31 -25 52 -31 37 -10 -6 6 -47 61 -92 120 l-82
108 63 -49 c81 -64 205 -141 294 -182 38 -18 86 -41 107 -51 49 -23 55 -10 27
55 -11 26 -20 51 -20 54 0 4 23 -17 51 -46 28 -29 53 -51 56 -48 2 2 -9 35
-25 73 -64 149 -67 162 -54 268 7 53 19 109 28 123 15 27 15 26 10 -18 -3 -25
-8 -58 -12 -74 -5 -21 -4 -27 5 -22 6 4 11 16 11 26 0 10 6 25 13 32 7 7 19
27 25 43 16 36 72 104 72 86 0 -7 -5 -22 -11 -33 -7 -12 -17 -46 -24 -76 -30
-128 57 -301 180 -358 61 -29 94 -30 143 -5 64 33 129 115 111 141 -11 17 -19
9 -51 -49 -24 -43 -74 -71 -128 -71 -41 0 -48 4 -102 60 -32 32 -58 63 -58 68
0 5 13 25 28 45 21 26 32 33 43 26 22 -14 68 -10 100 8 16 10 29 20 29 23 0 4
6 14 13 23 12 17 15 17 65 1 48 -16 52 -19 52 -48 0 -20 7 -36 19 -43 18 -11
20 -9 26 27 8 46 -3 142 -21 185 -23 55 -75 116 -125 147 -27 17 -48 32 -46
34 6 7 130 -27 165 -45 20 -11 43 -29 50 -41 7 -12 18 -20 24 -18 21 7 88 -78
104 -133 19 -64 13 -115 -21 -181 -14 -27 -22 -48 -17 -48 13 0 72 105 89 159
9 28 20 51 23 51 4 0 12 -10 18 -22 16 -35 14 0 -3 50 -36 102 -79 163 -151
213 -31 21 -46 40 -54 67 -21 76 -13 81 38 26 52 -56 105 -120 139 -168 25
-34 75 -194 93 -296 14 -75 17 -299 6 -349 -5 -22 -5 -31 2 -27 13 8 47 117
68 216 8 41 17 76 19 78 9 10 72 -221 121 -445 22 -100 25 -143 25 -285 0
-306 -51 -539 -172 -779 -40 -81 -44 -104 -13 -78 28 23 131 182 179 278 25
50 47 91 49 91 7 0 -35 -235 -54 -303 -12 -43 -20 -81 -17 -83 9 -9 187 189
234 261 26 41 50 75 53 75 3 0 23 -35 44 -77 22 -42 55 -99 73 -126 33 -48 40
-72 25 -79 -4 -1 -28 -30 -53 -63 -25 -33 -83 -109 -130 -169 -46 -59 -119
-156 -161 -215 l-77 -106 214 -3 214 -2 83 86 c148 154 363 368 412 409 67 56
84 64 141 64 l50 0 -65 -57 c-36 -31 -168 -156 -294 -277 l-228 -220 36 -3
c35 -3 43 2 126 85 141 141 312 299 357 332 22 16 44 35 48 41 4 6 29 29 57
50 30 25 45 42 36 44 -25 9 -153 25 -238 31 -47 4 -148 17 -225 31 -175 30
-214 31 -250 2 l-28 -22 -23 30 c-13 16 -38 55 -54 86 -30 55 -30 59 -21 133
5 41 7 84 4 95 -6 24 26 110 41 110 7 0 19 -12 28 -28 9 -15 39 -52 67 -82
l51 -55 -5 95 c-3 52 -2 111 3 130 8 34 9 32 22 -40 7 -41 14 -110 14 -152 1
-43 4 -78 8 -78 17 0 30 95 31 218 0 72 1 132 3 132 1 0 12 -17 25 -37 23 -39
69 -93 78 -93 3 0 5 69 3 152 l-3 153 66 -72 c84 -92 106 -96 60 -9 -19 35
-35 74 -35 86 0 12 16 88 35 168 19 81 37 165 41 187 5 33 7 36 16 22 17 -32
88 -237 88 -257 0 -11 7 -20 16 -20 8 0 13 4 10 9 -3 5 4 44 15 87 25 92 30
313 10 428 -6 38 -9 71 -6 74 4 4 61 -110 148 -298 15 -34 16 -33 16 92 1 120
-1 131 -35 230 -97 280 -245 598 -422 907 -56 98 -207 328 -263 400 -11 13
-19 27 -19 31 0 4 42 26 93 50 232 110 647 335 647 352 0 5 -16 0 -35 -12 -79
-49 -540 -289 -631 -329 -55 -24 -112 -50 -129 -57 -16 -7 -93 -36 -170 -64
-118 -43 -262 -97 -286 -108 -4 -2 -17 14 -30 35 -13 21 -50 73 -82 116 -32
43 -57 79 -55 81 43 27 133 104 186 160 108 114 278 346 254 346 -5 0 -34 -38
-66 -85 -88 -127 -74 -122 -191 -65 -153 76 -394 151 -471 149 -27 -1 -31 -3
-14 -6 140 -25 317 -83 473 -157 89 -43 97 -48 87 -66 -17 -32 -193 -205 -235
-232 l-39 -25 -80 84 c-212 225 -525 386 -741 382 l-60 -1 90 -14 c225 -34
445 -145 633 -319 73 -67 218 -244 284 -345 77 -118 170 -294 214 -405 20 -49
42 -101 49 -115 20 -41 29 -73 16 -66 -7 5 -9 1 -5 -8 3 -9 10 -14 14 -11 5 3
11 1 14 -4 3 -5 0 -11 -8 -14 -8 -3 -17 1 -20 9 -3 9 -10 13 -15 9 -5 -3 -12
-1 -16 5 -8 12 -55 13 -55 1 0 -5 -26 -12 -57 -15 -149 -13 -178 -21 -213 -56
-11 -11 -27 -20 -35 -20 -12 0 -19 -21 -17 -50 0 -3 -11 -6 -26 -7 -15 0 -19
1 -10 4 13 3 38 49 38 69 0 13 -19 1 -23 -13 -4 -14 -5 -13 -6 4 -1 13 6 23
17 26 16 4 16 5 -1 6 -20 1 -40 -39 -26 -53 11 -12 12 -26 1 -26 -5 0 -22 33
-37 73 -111 283 -229 541 -260 567 -19 15 -32 6 -17 -12 14 -18 134 -259 167
-338 39 -92 87 -232 81 -237 -2 -3 -15 1 -28 7 l-23 12 23 -21 c12 -12 27 -19
33 -15 8 4 9 -1 4 -16 -5 -15 -4 -20 4 -16 6 4 11 0 11 -10 0 -12 -32 12 -94
72 -73 69 -97 99 -107 132 -7 23 -16 42 -20 42 -17 0 -17 -20 0 -76 10 -32 22
-74 26 -92 7 -33 7 -34 -18 -20 -13 7 -49 49 -79 93 -64 94 -180 246 -203 265
-8 7 -18 10 -21 7 -5 -4 29 -50 144 -195 l44 -54 -59 39 c-32 22 -96 61 -143
88 -47 27 -87 50 -89 51 -2 2 7 17 19 34 30 42 15 54 -17 13 l-25 -32 -70 35
c-39 19 -77 33 -85 30 -13 -5 -14 -26 -8 -135 l7 -130 -48 -66 c-33 -45 -50
-61 -55 -52 -8 14 -41 210 -59 347 -6 47 -15 118 -20 158 -6 40 -10 108 -11
150 0 137 -16 238 -34 220 -8 -7 12 -303 31 -463 14 -124 59 -412 70 -446 2
-9 -2 -22 -11 -29 -16 -13 -21 -40 -7 -40 4 0 13 5 20 12 9 9 12 8 12 -4 0 -9
-6 -19 -12 -21 -8 -4 -7 -6 3 -6 15 -1 29 -38 29 -78 0 -13 -3 -13 -15 -3 -12
10 -15 10 -15 -1 -1 -8 -7 0 -16 16 -13 28 -14 28 -9 4 3 -18 0 -26 -9 -26
-19 0 -84 -54 -85 -70 -1 -9 -18 -13 -51 -13 -32 0 -61 -7 -82 -20 -18 -11
-43 -20 -56 -20 -12 0 -25 -7 -28 -15 -7 -17 -34 -21 -34 -4 0 5 4 7 10 4 6
-3 7 1 4 9 -3 9 -10 14 -14 11 -5 -3 -12 0 -16 6 -3 6 -1 15 7 19 8 5 -2 7
-24 6 -21 -2 -40 -6 -44 -9 -3 -4 11 -32 31 -63 21 -31 32 -52 24 -48 -7 5
-16 9 -20 9 -3 0 -10 4 -15 9 -5 5 -2 6 6 1 9 -5 12 -3 9 6 -3 8 -10 14 -17
14 -25 0 -134 211 -181 350 -15 43 -33 81 -40 83 -13 5 -13 2 6 -72 7 -26 -71
-287 -90 -298 -16 -11 -28 -10 -21 2 3 5 0 7 -8 4 -16 -6 -134 30 -189 57 -43
22 -51 23 -46 8 2 -6 27 -21 56 -33 l52 -22 3 -142 c1 -78 -2 -142 -6 -142 -5
0 -7 10 -4 23 3 12 1 31 -3 42 -8 20 -9 20 -9 -1 -1 -17 -6 -20 -31 -16 -25 3
-29 1 -24 -12 8 -20 -28 -22 -48 -3 -8 7 -36 12 -70 12 -36 -1 -55 3 -52 10 3
5 -3 0 -14 -12 -23 -26 -32 -29 -32 -9 0 7 -7 19 -15 26 -12 10 -14 8 -10 -9
3 -18 1 -19 -15 -9 -10 6 -16 18 -13 25 9 24 -6 14 -20 -14 -14 -26 -15 -26
-21 -5 -4 13 -5 37 -2 55 5 23 4 27 -3 12 -5 -11 -12 -53 -16 -92 -10 -103
-29 -84 -20 21 32 402 111 725 242 996 43 89 56 112 122 215 116 182 332 405
498 511 122 78 338 166 475 193 l43 9 -45 1 c-28 0 -83 -13 -145 -34z m1872
-637 c155 -227 270 -414 265 -430 -1 -4 2 -8 8 -8 6 0 9 -3 8 -7 -1 -5 3 -18
10 -30 8 -15 9 -23 2 -23 -5 0 -10 -4 -10 -10 0 -5 6 -7 14 -4 9 3 14 -3 14
-19 0 -24 -1 -24 -19 -6 -24 24 -40 24 -46 -1 -7 -24 -29 -26 -42 -3 -8 15
-11 15 -25 4 -15 -13 -65 -22 -123 -23 -13 0 -23 -4 -23 -8 0 -14 -31 -20 -51
-10 -15 9 -19 7 -19 -6 0 -10 -5 -14 -15 -10 -18 7 -19 -5 -2 -24 10 -12 9
-12 -4 -2 -9 6 -20 8 -25 4 -5 -4 -6 -3 -2 2 4 5 -1 20 -12 34 -11 13 -17 29
-13 35 3 5 1 7 -4 4 -14 -9 -37 19 -28 33 3 6 11 7 17 4 7 -4 7 0 -1 13 -7 14
-7 24 2 33 10 12 9 12 -5 1 -10 -7 -15 -17 -12 -22 3 -5 2 -14 -1 -20 -4 -6
-18 5 -33 28 -14 21 -25 39 -24 40 1 2 -8 13 -19 25 -19 21 -110 132 -158 194
-11 14 -25 23 -30 19 -6 -3 21 -44 62 -93 94 -112 170 -220 162 -231 -3 -5 0
-13 6 -17 8 -5 9 -3 4 6 -5 9 -4 11 4 6 7 -4 10 -13 8 -19 -4 -12 19 -67 29
-67 2 0 -3 15 -11 33 -15 30 -15 31 0 12 30 -36 37 -55 22 -55 -8 0 -17 3 -20
6 -10 10 -67 13 -67 4 0 -5 6 -11 13 -14 8 -4 7 -5 -3 -5 -8 1 -24 1 -35 0
-16 -1 -17 -3 -6 -10 10 -6 6 -9 -14 -8 -28 2 -39 19 -103 172 -49 119 -86
196 -138 286 -57 100 -60 109 -44 109 6 0 29 9 53 19 23 11 85 34 137 52 52
18 135 49 185 69 l90 36 18 -22 c10 -13 34 -47 54 -76z m-1528 -383 c17 -8 33
-19 36 -25 6 -10 -46 -89 -92 -140 l-23 -25 0 112 0 113 25 -10 c14 -5 38 -16
54 -25z m241 -141 c103 -62 190 -131 190 -151 0 -5 -53 -8 -117 -8 -111 0
-122 -2 -183 -31 -36 -17 -78 -44 -95 -60 -42 -41 -90 -96 -103 -119 -10 -17
-11 -13 -12 26 0 37 5 50 28 71 52 48 78 62 201 109 13 5 22 12 19 14 -9 10
-139 -45 -191 -80 l-52 -35 -3 79 c-3 72 0 83 28 130 16 29 48 77 71 107 l40
55 32 -19 c18 -10 84 -50 147 -88z m1629 -64 c11 -24 11 -24 -3 -6 -9 11 -16
24 -16 30 0 12 5 7 19 -24z m-532 -56 c-3 -3 -12 -4 -19 -1 -8 3 -5 6 6 6 11
1 17 -2 13 -5z m-104 -54 c-3 -3 -8 1 -10 8 -4 9 -9 10 -18 2 -9 -8 -14 -7
-18 4 -4 10 -1 13 9 9 8 -3 14 1 14 8 0 7 6 5 14 -7 8 -10 12 -21 9 -24z m231
-13 c-3 -9 -11 -17 -16 -17 -6 0 -5 6 2 15 12 15 6 35 -11 35 -6 0 -7 -5 -3
-12 4 -7 3 -8 -4 -4 -6 4 -8 14 -5 22 5 14 8 13 25 -3 11 -12 16 -26 12 -36z
m-1564 -42 c0 -65 -3 -83 -13 -79 -7 2 -22 -11 -33 -32 l-21 -36 -7 42 c-3 23
-3 46 0 52 4 7 2 8 -4 4 -23 -14 -11 15 31 74 23 33 43 60 45 60 1 0 2 -38 2
-85z m1435 54 c49 -43 101 -142 115 -217 11 -62 4 -134 -18 -192 l-10 -25 -11
28 c-14 36 -14 38 5 76 8 17 14 37 11 44 -2 6 -11 -4 -19 -23 l-15 -35 -31 82
c-36 92 -37 103 -19 123 10 12 9 12 -4 2 -14 -10 -19 -6 -34 34 -12 33 -14 49
-6 57 12 12 47 -14 56 -43 6 -18 35 -36 35 -22 0 5 -16 25 -35 46 -25 28 -41
37 -55 33 -13 -3 -24 1 -30 13 -30 56 10 67 65 19z m62 -14 c0 -10 -5 -11 -19
-4 -10 6 -16 14 -13 19 8 13 32 2 32 -15z m-877 -44 c0 -11 3 -28 6 -38 3 -10
-2 -7 -10 7 -18 29 -20 50 -6 50 6 0 10 -9 10 -19z m-342 -34 c9 -10 7 -19 -4
-35 -18 -26 -37 -28 -55 -6 -11 14 -10 19 10 35 28 22 35 23 49 6z m-282 -107
c0 -11 -4 -20 -8 -20 -4 0 -8 -8 -8 -17 0 -15 -2 -16 -10 -3 -8 12 -10 8 -11
-15 -2 -30 -2 -30 -6 -3 -3 17 3 38 14 52 22 31 29 32 29 6z m-76 -60 c0 -5
-2 -10 -4 -10 -3 0 -8 5 -11 10 -3 6 -1 10 4 10 6 0 11 -4 11 -10z m-60 -21
c0 -5 -4 -9 -10 -9 -5 0 -10 7 -10 16 0 8 5 12 10 9 6 -3 10 -10 10 -16z m114
-25 c3 -8 2 -12 -4 -9 -6 3 -10 10 -10 16 0 14 7 11 14 -7z m-489 -34 c27 -30
12 -34 -15 -5 -13 14 -19 25 -13 25 5 0 18 -9 28 -20z m-407 -3 c23 -7 39 -16
35 -21 -4 -4 0 -4 10 0 15 5 16 1 11 -32 -3 -20 -10 -48 -15 -61 -5 -14 -9
-35 -9 -49 0 -14 -7 -27 -15 -30 -12 -5 -13 -9 -4 -20 7 -8 9 -17 6 -20 -9 -9
-34 19 -31 34 1 7 0 8 -3 2 -2 -5 -11 -10 -18 -10 -7 0 -15 -6 -18 -12 -8 -22
-20 160 -13 197 8 40 6 39 64 22z m486 -59 c-3 -5 -1 -8 5 -8 5 0 12 5 14 10
3 6 4 5 3 -1 -4 -23 -42 -29 -58 -9 -15 16 -14 17 12 16 16 0 26 -4 24 -8z
m-927 -180 c-3 -8 -6 -5 -6 6 -1 11 2 17 5 13 3 -3 4 -12 1 -19z m179 -36 c-3
-2 -1 -14 5 -25 8 -14 8 -17 0 -13 -5 4 -15 23 -21 44 -14 52 -12 62 5 28 9
-16 13 -31 11 -34z m274 4 c0 -16 -5 -13 -25 14 -31 42 -31 45 0 23 13 -10 25
-27 25 -37z m-323 22 c-3 -8 -6 -5 -6 6 -1 11 2 17 5 13 3 -3 4 -12 1 -19z
m-21 -13 c-7 -27 2 -32 24 -12 8 6 6 2 -5 -11 -15 -18 -20 -20 -26 -9 -8 13
-1 57 8 57 3 0 2 -11 -1 -25z m297 12 c3 -8 1 -20 -4 -28 -6 -10 -9 -7 -9 14
0 29 5 35 13 14z m-36 -53 c2 -13 1 -15 -4 -4 -3 8 -11 19 -17 23 -7 6 -6 7 4
4 8 -2 16 -12 17 -23z m63 22 c0 -3 -4 -8 -10 -11 -5 -3 -10 -1 -10 4 0 6 5
11 10 11 6 0 10 -2 10 -4z m-200 -16 c0 -5 -8 -10 -17 -10 -15 0 -16 2 -3 10
19 12 20 12 20 0z m-93 -32 c-3 -8 -6 -5 -6 6 -1 11 2 17 5 13 3 -3 4 -12 1
-19z m227 -14 c3 -8 2 -12 -4 -9 -6 3 -10 10 -10 16 0 14 7 11 14 -7z m73 -16
c-3 -7 -5 -2 -5 12 0 14 2 19 5 13 2 -7 2 -19 0 -25z m-5 -50 c-8 -8 -9 -4 -5
13 4 13 8 18 11 10 2 -7 -1 -18 -6 -23z m-402 -202 c0 -7 31 -77 69 -154 63
-126 71 -150 85 -246 9 -59 16 -109 16 -112 0 -9 -60 27 -94 57 -74 65 -113
210 -101 374 4 52 11 95 16 95 5 0 9 -6 9 -14z"/>
<path d="M3536 2888 c3 -5 10 -6 15 -3 13 9 11 12 -6 12 -8 0 -12 -4 -9 -9z"/>
<path d="M3250 2781 c0 -5 -8 -11 -17 -13 -10 -2 -13 -6 -8 -10 6 -3 18 0 28
7 12 8 14 15 8 20 -6 3 -11 2 -11 -4z"/>
<path d="M3020 2755 c0 -8 2 -15 4 -15 2 0 6 7 10 15 3 8 1 15 -4 15 -6 0 -10
-7 -10 -15z"/>
<path d="M3123 2756 c1 -11 9 -21 17 -23 10 -3 11 -2 4 4 -6 4 -14 15 -17 23
-5 11 -6 9 -4 -4z"/>
<path d="M3026 2722 c-3 -5 1 -9 9 -9 8 0 12 4 9 9 -3 4 -7 8 -9 8 -2 0 -6 -4
-9 -8z"/>
<path d="M1627 2513 c-4 -3 -7 -13 -7 -22 1 -13 3 -13 11 2 11 19 8 33 -4 20z"/>
<path d="M761 2144 c0 -11 3 -14 6 -6 3 7 2 16 -1 19 -3 4 -6 -2 -5 -13z"/>
<path d="M3279 3958 c-18 -64 -17 -128 2 -141 13 -8 32 2 90 45 92 69 160 138
136 138 -9 0 -21 -9 -26 -19 -15 -28 -179 -153 -191 -146 -15 9 -12 56 5 105
18 50 18 60 5 60 -5 0 -15 -19 -21 -42z"/>
<path d="M1890 3603 c46 -35 150 -143 212 -220 46 -58 68 -76 68 -55 0 16
-156 197 -215 250 -32 28 -68 52 -79 52 -18 0 -15 -5 14 -27z"/>
<path d="M896 3407 c-38 -92 -50 -171 -50 -337 0 -135 4 -184 22 -270 22 -99
34 -131 47 -118 3 3 -6 63 -20 134 -22 108 -26 151 -24 273 2 140 13 205 56
334 10 31 -16 18 -31 -16z"/>
<path d="M492 3003 c-22 -42 -50 -153 -38 -153 14 0 68 158 56 165 -5 3 -13
-2 -18 -12z"/>
<path d="M435 2813 c-3 -10 -13 -70 -21 -133 -22 -176 -14 -459 13 -442 9 6 9
34 2 117 -12 133 1 347 27 451 7 28 -10 33 -21 7z"/>
<path d="M2906 2737 c3 -10 9 -15 12 -12 3 3 0 11 -7 18 -10 9 -11 8 -5 -6z"/>
<path d="M2941 2734 c0 -11 3 -14 6 -6 3 7 2 16 -1 19 -3 4 -6 -2 -5 -13z"/>
<path d="M1546 2465 c4 -8 8 -15 10 -15 2 0 4 7 4 15 0 8 -4 15 -10 15 -5 0
-7 -7 -4 -15z"/>
<path d="M425 2171 c7 -59 25 -105 33 -83 7 23 -8 98 -24 118 -14 17 -15 14
-9 -35z"/>
<path d="M303 2155 c0 -16 -3 -41 -7 -55 -5 -19 -3 -18 10 7 13 25 15 38 7 55
-10 22 -10 22 -10 -7z"/>
<path d="M985 2110 c-4 -6 13 -10 43 -10 27 0 71 -2 98 -5 l49 -4 -50 13 c-60
17 -131 20 -140 6z"/>
<path d="M920 2093 c-26 -10 -70 -44 -70 -54 0 -6 17 2 38 17 60 45 64 49 32
37z"/>
<path d="M963 2064 c-99 -49 -175 -217 -152 -338 11 -58 40 -122 72 -160 25
-29 48 -36 26 -8 -13 15 -12 16 2 4 20 -15 141 -63 146 -58 2 2 -21 18 -51 35
-47 27 -60 41 -87 96 -25 52 -31 76 -31 133 -1 74 27 151 71 201 25 29 26 25
4 -19 -23 -48 -23 -162 1 -225 27 -70 78 -137 124 -162 33 -19 46 -21 91 -14
64 10 99 41 108 96 8 49 -9 40 -27 -15 -17 -51 -26 -59 -83 -66 -44 -6 -47 -5
-91 41 -25 26 -46 55 -46 65 0 28 49 80 75 80 13 0 32 11 43 25 16 20 25 23
56 18 30 -5 40 -12 51 -39 8 -19 19 -34 24 -34 32 0 -8 140 -60 217 -33 47
-33 47 20 26 26 -11 -9 37 -42 58 -39 24 -150 59 -186 59 -14 0 -41 -8 -58
-16z m97 -68 c0 -31 -30 -43 -47 -20 -15 21 -1 44 28 44 13 0 19 -7 19 -24z"/>
<path d="M1944 1604 c-66 -47 -197 -108 -264 -124 -79 -18 -109 -32 -159 -74
-24 -20 -60 -44 -80 -53 -26 -11 -31 -17 -19 -20 9 -2 31 -30 49 -61 116 -208
292 -356 439 -369 48 -5 64 -2 93 16 49 30 95 87 124 151 59 130 12 320 -119
484 -27 33 -29 41 -19 58 20 32 8 30 -45 -8z m137 -196 c33 -65 49 -135 49
-219 0 -103 -39 -180 -124 -246 -70 -55 -234 -2 -344 110 l-54 55 20 43 c46
103 221 239 367 285 59 19 63 18 86 -28z"/>
<path d="M1330 1520 c0 -5 5 -10 11 -10 5 0 7 5 4 10 -3 6 -8 10 -11 10 -2 0
-4 -4 -4 -10z"/>
<path d="M3913 386 c-43 -35 -152 -136 -243 -225 l-165 -160 63 0 63 -1 145
127 c79 69 162 139 184 156 40 29 40 29 40 98 0 38 -2 69 -4 69 -2 0 -39 -29
-83 -64z"/>
<path d="M3932 76 c-56 -58 -70 -76 -58 -76 2 0 32 32 66 70 34 39 60 70 58
70 -3 0 -33 -29 -66 -64z"/>
</g>
</svg>
